<svg width="211" height="211" viewBox="0 0 211 211" fill="none" xmlns="http://www.w3.org/2000/svg">
<path d="M211 161.373H0V161.478H211V161.373Z" fill="#EBEBEB"/>
<path d="M189.858 168.163H175.881V168.268H189.858V168.163Z" fill="#EBEBEB"/>
<path d="M139.775 169.311H136.108V169.416H139.775V169.311Z" fill="#EBEBEB"/>
<path d="M175.459 164.247H167.361V164.352H175.459V164.247Z" fill="#EBEBEB"/>
<path d="M40.3643 164.956H22.1382V165.061H40.3643V164.956Z" fill="#EBEBEB"/>
<path d="M46.7956 164.956H44.1243V165.061H46.7956V164.956Z" fill="#EBEBEB"/>
<path d="M95.0133 166.736H55.4803V166.842H95.0133V166.736Z" fill="#EBEBEB"/>
<path d="M100.014 142.552H18.53C17.8917 142.55 17.2799 142.296 16.8289 141.844C16.3779 141.393 16.1246 140.78 16.1246 140.142V25.5985C16.1302 24.9638 16.3859 24.3569 16.8363 23.9097C17.2867 23.4625 17.8953 23.211 18.53 23.21H100.014C100.653 23.21 101.266 23.4638 101.718 23.9157C102.17 24.3676 102.424 24.9805 102.424 25.6196V140.142C102.424 140.781 102.17 141.394 101.718 141.846C101.266 142.298 100.653 142.552 100.014 142.552ZM18.53 23.2944C17.9197 23.2955 17.3347 23.5387 16.9035 23.9707C16.4723 24.4027 16.2301 24.9881 16.2301 25.5985V140.142C16.2301 140.752 16.4723 141.338 16.9035 141.77C17.3347 142.202 17.9197 142.445 18.53 142.446H100.014C100.625 142.445 101.21 142.202 101.642 141.77C102.074 141.338 102.317 140.753 102.318 140.142V25.5985C102.317 24.9877 102.074 24.4023 101.642 23.9705C101.21 23.5386 100.625 23.2955 100.014 23.2944H18.53Z" fill="#EBEBEB"/>
<path d="M191.297 142.552H109.809C109.17 142.55 108.558 142.296 108.106 141.845C107.654 141.393 107.4 140.781 107.399 140.142V25.5985C107.406 24.9634 107.662 24.3566 108.113 23.9095C108.564 23.4624 109.174 23.211 109.809 23.21H191.297C191.931 23.2122 192.538 23.4641 192.988 23.9112C193.437 24.3583 193.692 24.9645 193.698 25.5985V140.142C193.698 140.78 193.445 141.391 192.995 141.843C192.545 142.294 191.934 142.549 191.297 142.552ZM109.809 23.2944C109.198 23.2955 108.612 23.5386 108.181 23.9705C107.749 24.4023 107.506 24.9877 107.504 25.5985V140.142C107.506 140.753 107.749 141.338 108.181 141.77C108.612 142.202 109.198 142.445 109.809 142.446H191.297C191.908 142.445 192.493 142.202 192.925 141.77C193.357 141.338 193.6 140.753 193.601 140.142V25.5985C193.6 24.9877 193.357 24.4023 192.925 23.9705C192.493 23.5386 191.908 23.2955 191.297 23.2944H109.809Z" fill="#EBEBEB"/>
<path d="M92.4602 161.373H100.318V107.412H92.4602V161.373Z" fill="#E6E6E6"/>
<path d="M95.2285 161.373H92.4602V151.118H98.1277L95.2285 161.373Z" fill="#F0F0F0"/>
<path d="M175.565 161.373H183.422V107.412H175.565V161.373Z" fill="#E6E6E6"/>
<path d="M92.4644 158.571H177.979V107.408H92.4644V158.571Z" fill="#F0F0F0"/>
<path d="M175.21 161.373H177.978V151.118H172.311L175.21 161.373Z" fill="#F0F0F0"/>
<path d="M149.785 111.644V153.967H175.134V111.644H149.785Z" fill="#E6E6E6"/>
<path d="M159.938 113.134H164.951C167.076 113.165 169.136 112.398 170.724 110.986H154.19C155.773 112.392 157.822 113.158 159.938 113.134Z" fill="#F0F0F0"/>
<path d="M122.545 111.644V153.967H147.894V111.644H122.545Z" fill="#E6E6E6"/>
<path d="M132.453 113.134H137.471C139.591 113.161 141.646 112.395 143.231 110.986H126.697C128.281 112.395 130.334 113.161 132.453 113.134Z" fill="#F0F0F0"/>
<path d="M95.3045 111.649V153.971H120.654V111.649H95.3045Z" fill="#E6E6E6"/>
<path d="M105.217 113.134H110.231C112.351 113.161 114.405 112.395 115.991 110.986H99.457C101.042 112.395 103.096 113.162 105.217 113.134Z" fill="#F0F0F0"/>
<path d="M31.4812 161.373H85.1005L85.1005 40.8412H31.4812L31.4812 161.373Z" fill="#F0F0F0"/>
<path d="M31.4812 161.373H83.9696L83.9696 40.8412H31.4812L31.4812 161.373Z" fill="#F5F5F5"/>
<path d="M80.7708 158.638V43.5757H34.6799L34.6799 158.638H80.7708Z" fill="#F0F0F0"/>
<path d="M76.2427 64.9881C76.2433 63.3379 75.9187 61.7038 75.2876 60.1791C74.6565 58.6544 73.7312 57.269 72.5646 56.102C71.398 54.935 70.0129 54.0092 68.4884 53.3776C66.9639 52.746 65.3299 52.4209 63.6798 52.4209H51.7794C48.4464 52.4209 45.2499 53.7449 42.8931 56.1017C40.5363 58.4585 39.2122 61.655 39.2122 64.9881H76.2427Z" fill="#FAFAFA"/>
<path d="M76.2469 151.485V123.996H39.2165V151.485H76.2469Z" fill="#F5F5F5"/>
<path d="M76.247 72.7231H59.9113V120.447H76.247V72.7231Z" fill="#F5F5F5"/>
<path d="M55.5478 72.7231H39.2122V120.447H55.5478V72.7231Z" fill="#F5F5F5"/>
<path d="M45.154 96.3721H38.4442C38.1689 96.3721 37.9048 96.2628 37.7101 96.0681C37.5154 95.8734 37.4061 95.6093 37.4061 95.334C37.4072 95.059 37.5169 94.7956 37.7114 94.6012C37.9058 94.4067 38.1692 94.297 38.4442 94.2959H45.154C45.429 94.297 45.6924 94.4067 45.8868 94.6012C46.0813 94.7956 46.191 95.059 46.1921 95.334C46.1921 95.6093 46.0827 95.8734 45.888 96.0681C45.6934 96.2628 45.4293 96.3721 45.154 96.3721Z" fill="#E0E0E0"/>
<path d="M35.5113 158.638L35.5113 43.5757H34.68L34.68 158.638H35.5113Z" fill="#F0F0F0"/>
<path d="M119.021 94.1819H175.881V34.7432L119.021 34.7432V94.1819Z" fill="#E6E6E6"/>
<path d="M117.586 94.1819H174.446V34.7432L117.586 34.7432V94.1819Z" fill="#F5F5F5"/>
<path d="M114.265 97.271L175.881 97.271V94.182L114.265 94.182V97.271Z" fill="#E6E6E6"/>
<path d="M112.649 97.271L171.091 97.271V94.182H112.649V97.271Z" fill="#F5F5F5"/>
<path d="M171.876 91.4094V37.52H120.16V91.4094H171.876Z" fill="white"/>
<path d="M147.451 91.4094V37.52H144.586V91.4094H147.451Z" fill="#F5F5F5"/>
<path d="M121.241 91.4094V37.52H120.156V91.4094H121.241Z" fill="#E6E6E6"/>
<path d="M148.536 91.4094V37.52H147.451V91.4094H148.536Z" fill="#E6E6E6"/>
<path d="M126.663 95.5955C125.617 84.7586 124.887 67.178 125.452 61.2954C125.464 61.1951 125.496 61.0984 125.547 61.0112C125.598 60.924 125.666 60.8484 125.748 60.789C125.857 60.7091 125.986 60.6614 126.121 60.6514C126.255 60.6414 126.39 60.6694 126.51 60.7323C126.63 60.7952 126.729 60.8904 126.797 61.0071C126.865 61.1238 126.899 61.2573 126.895 61.3924C126.798 64.3084 126.684 71.5922 127.317 84.1551C127.625 90.4091 128.069 94.7051 127.765 95.5955H126.663Z" fill="#E6E6E6"/>
<path d="M122.764 70.6218C119.785 67.3133 113.704 64.9627 107.509 64.9754C105.074 64.9754 114.911 68.8198 119 73.0609C122.177 76.3525 125.752 81.8934 126.98 84.9697C126.178 78.4921 125.756 73.926 122.764 70.6218Z" fill="#E6E6E6"/>
<path d="M128.668 71.6303C131.141 68.1868 136.846 65.5366 143.016 65.237C145.438 65.1188 136.213 69.457 132.77 73.8711C130.098 77.3104 127.355 83.0116 126.6 86.1344C126.427 79.6483 126.178 75.0738 128.668 71.6303Z" fill="#E6E6E6"/>
<path d="M122.633 58.5482C120.101 55.7461 114.961 53.7542 109.712 53.7669C107.652 53.7669 115.978 57.0247 119.443 60.6117C122.135 63.4012 125.169 68.0938 126.195 70.6975C125.532 65.22 125.153 61.346 122.633 58.5482Z" fill="#E6E6E6"/>
<path d="M127.63 62.6881C129.74 59.7721 134.555 57.5271 139.787 57.2739C141.838 57.1768 134.027 60.8355 131.111 64.5871C128.849 67.4989 126.524 72.3266 125.887 74.9725C125.756 69.4781 125.537 65.6041 127.63 62.6881Z" fill="#E6E6E6"/>
<path d="M127.081 107.412C125.51 107.412 123.998 106.811 122.855 105.732C121.713 104.653 121.026 103.178 120.937 101.609L120.392 92.1902H133.774L133.23 101.609C133.14 103.179 132.453 104.655 131.31 105.734C130.166 106.813 128.653 107.413 127.081 107.412Z" fill="#E6E6E6"/>
<path d="M134.639 94.3296H119.527L119.093 90.4092H135.07L134.639 94.3296Z" fill="#E6E6E6"/>
<path d="M105.5 180.43C150.689 180.43 187.322 178.292 187.322 175.653C187.322 173.015 150.689 170.876 105.5 170.876C60.3112 170.876 23.6784 173.015 23.6784 175.653C23.6784 178.292 60.3112 180.43 105.5 180.43Z" fill="#F5F5F5"/>
<path d="M22.0706 47.9097C22.0728 47.2075 22.3527 46.5347 22.8492 46.0382C23.3457 45.5417 24.0185 45.2617 24.7207 45.2595H142.974C143.676 45.2617 144.349 45.5417 144.845 46.0382C145.342 46.5347 145.621 47.2075 145.624 47.9097V56.4383H22.0706V47.9097Z" fill="#263238"/>
<path d="M43.4955 53.0836C43.0532 53.0836 42.6207 52.9524 42.2529 52.7066C41.8851 52.4609 41.5984 52.1115 41.4292 51.7029C41.2599 51.2942 41.2156 50.8445 41.3019 50.4106C41.3882 49.9768 41.6012 49.5782 41.914 49.2654C42.2268 48.9526 42.6253 48.7396 43.0592 48.6533C43.493 48.567 43.9427 48.6113 44.3514 48.7806C44.7601 48.9499 45.1094 49.2366 45.3552 49.6044C45.6009 49.9722 45.7321 50.4046 45.7321 50.847C45.7321 51.4401 45.4965 52.009 45.077 52.4285C44.6576 52.8479 44.0887 53.0836 43.4955 53.0836ZM43.4955 49.0788C43.1458 49.0788 42.8039 49.1825 42.5132 49.3768C42.2224 49.5711 41.9958 49.8472 41.8619 50.1703C41.7281 50.4934 41.6931 50.8489 41.7613 51.1919C41.8295 51.5349 41.9979 51.85 42.2452 52.0972C42.4925 52.3445 42.8076 52.5129 43.1506 52.5812C43.4935 52.6494 43.8491 52.6144 44.1722 52.4805C44.4953 52.3467 44.7714 52.1201 44.9657 51.8293C45.16 51.5385 45.2637 51.1967 45.2637 50.847C45.2626 50.3783 45.0759 49.9292 44.7446 49.5979C44.4132 49.2665 43.9641 49.0799 43.4955 49.0788Z" fill="#F0F0F0"/>
<path d="M36.3932 53.0836C35.951 53.0827 35.519 52.9508 35.1518 52.7046C34.7845 52.4583 34.4985 52.1087 34.3299 51.6999C34.1612 51.2912 34.1175 50.8416 34.2043 50.408C34.2911 49.9745 34.5044 49.5763 34.8174 49.264C35.1304 48.9516 35.5289 48.739 35.9626 48.653C36.3964 48.5671 36.8459 48.6116 37.2543 48.781C37.6628 48.9504 38.0118 49.2371 38.2574 49.6048C38.503 49.9725 38.634 50.4048 38.634 50.847C38.634 51.141 38.576 51.4322 38.4634 51.7038C38.3507 51.9755 38.1856 52.2222 37.9775 52.43C37.7693 52.6377 37.5223 52.8024 37.2504 52.9145C36.9786 53.0267 36.6873 53.0841 36.3932 53.0836ZM36.3932 49.0788C36.0437 49.0796 35.7022 49.184 35.412 49.3788C35.1218 49.5736 34.8958 49.8501 34.7626 50.1732C34.6295 50.4964 34.595 50.8518 34.6637 51.1945C34.7324 51.5372 34.9012 51.8519 35.1486 52.0987C35.3961 52.3456 35.7111 52.5136 36.054 52.5815C36.3969 52.6493 36.7522 52.6141 37.0751 52.4801C37.3979 52.3462 37.6738 52.1195 37.8679 51.8289C38.062 51.5382 38.1656 51.1965 38.1656 50.847C38.1645 50.3776 37.9773 49.9279 37.645 49.5964C37.3127 49.2649 36.8626 49.0788 36.3932 49.0788Z" fill="#F0F0F0"/>
<path d="M29.2952 53.0836C28.853 53.0827 28.421 52.9508 28.0538 52.7046C27.6865 52.4583 27.4005 52.1087 27.2319 51.6999C27.0632 51.2912 27.0196 50.8416 27.1063 50.408C27.1931 49.9745 27.4065 49.5763 27.7194 49.264C28.0324 48.9516 28.4309 48.739 28.8646 48.653C29.2984 48.5671 29.7479 48.6116 30.1563 48.781C30.5648 48.9504 30.9138 49.2371 31.1594 49.6048C31.405 49.9725 31.536 50.4048 31.536 50.847C31.536 51.141 31.478 51.4322 31.3654 51.7038C31.2527 51.9755 31.0876 52.2222 30.8795 52.43C30.6713 52.6377 30.4243 52.8024 30.1524 52.9145C29.8806 53.0267 29.5893 53.0841 29.2952 53.0836ZM29.2952 49.0788C28.9455 49.0788 28.6036 49.1825 28.3129 49.3768C28.0221 49.5711 27.7955 49.8472 27.6616 50.1703C27.5278 50.4934 27.4928 50.8489 27.561 51.1919C27.6292 51.5349 27.7976 51.85 28.0449 52.0972C28.2922 52.3445 28.6073 52.5129 28.9503 52.5812C29.2933 52.6494 29.6488 52.6144 29.9719 52.4805C30.295 52.3467 30.5711 52.1201 30.7654 51.8293C30.9597 51.5385 31.0634 51.1967 31.0634 50.847C31.0623 50.3783 30.8756 49.9292 30.5443 49.5979C30.2129 49.2665 29.7638 49.0799 29.2952 49.0788Z" fill="#F0F0F0"/>
<path d="M142.974 137.812H24.7207C24.0185 137.81 23.3457 137.53 22.8492 137.034C22.3527 136.537 22.0728 135.865 22.0706 135.162V56.4382H145.624V135.162C145.621 135.865 145.342 136.537 144.845 137.034C144.349 137.53 143.676 137.81 142.974 137.812Z" fill="#FF8900"/>
<path d="M144.873 58.7043H22.8217V128.474H144.873V58.7043Z" fill="white"/>
<path d="M76.901 64.6841H30.4093C29.5213 64.6841 28.8015 65.4039 28.8015 66.2919V72.4995C28.8015 73.3875 29.5213 74.1073 30.4093 74.1073H76.901C77.789 74.1073 78.5089 73.3875 78.5089 72.4995V66.2919C78.5089 65.4039 77.789 64.6841 76.901 64.6841Z" fill="#FF8900"/>
<path d="M137.285 65.1061C137.599 65.1061 137.901 65.231 138.123 65.4534C138.346 65.6758 138.471 65.9774 138.471 66.2919V72.4995C138.471 72.814 138.346 73.1156 138.123 73.338C137.901 73.5604 137.599 73.6853 137.285 73.6853H90.7932C90.4787 73.6853 90.1771 73.5604 89.9547 73.338C89.7324 73.1156 89.6074 72.814 89.6074 72.4995V66.2919C89.6074 65.9774 89.7324 65.6758 89.9547 65.4534C90.1771 65.231 90.4787 65.1061 90.7932 65.1061H137.285ZM137.285 64.6841H90.7932C90.3672 64.6852 89.9589 64.8549 89.6576 65.1562C89.3563 65.4575 89.1865 65.8658 89.1854 66.2919V72.4995C89.1854 72.9259 89.3548 73.3349 89.6563 73.6364C89.9579 73.938 90.3668 74.1073 90.7932 74.1073H137.285C137.711 74.1073 138.12 73.938 138.422 73.6364C138.723 73.3349 138.893 72.9259 138.893 72.4995V66.2919C138.892 65.8658 138.722 65.4575 138.421 65.1562C138.119 64.8549 137.711 64.6852 137.285 64.6841Z" fill="#FF8900"/>
<path d="M37.0642 78.3275C38.615 78.3275 40.1309 78.7874 41.4203 79.6489C42.7098 80.5105 43.7147 81.735 44.3082 83.1678C44.9016 84.6005 45.0569 86.177 44.7544 87.6979C44.4518 89.2189 43.7051 90.616 42.6085 91.7125C41.512 92.8091 40.1149 93.5559 38.5939 93.8584C37.0729 94.1609 35.4964 94.0057 34.0637 93.4122C32.631 92.8188 31.4064 91.8138 30.5449 90.5244C29.6833 89.235 29.2235 87.719 29.2235 86.1683C29.2257 84.0895 30.0525 82.0964 31.5225 80.6265C32.9924 79.1565 34.9854 78.3298 37.0642 78.3275ZM37.0642 77.9055C35.43 77.9055 33.8325 78.3901 32.4737 79.298C31.1149 80.206 30.0558 81.4964 29.4305 83.0063C28.8051 84.5161 28.6414 86.1774 28.9603 87.7803C29.2791 89.3831 30.066 90.8554 31.2216 92.0109C32.3772 93.1665 33.8494 93.9535 35.4523 94.2723C37.0551 94.5911 38.7165 94.4275 40.2263 93.8021C41.7361 93.1767 43.0266 92.1176 43.9345 90.7588C44.8424 89.4 45.327 87.8025 45.327 86.1683C45.327 83.9769 44.4565 81.8752 42.9069 80.3256C41.3573 78.7761 39.2557 77.9055 37.0642 77.9055Z" fill="#FF8900"/>
<path opacity="0.4" d="M43.0439 89.4175C42.4585 90.4968 41.5925 91.3981 40.5375 92.0261C39.4824 92.6541 38.2773 92.9856 37.0494 92.9856C35.8216 92.9856 34.6165 92.6541 33.5614 92.0261C32.5063 91.3981 31.6403 90.4968 31.0549 89.4175C32.8291 88.2315 34.9153 87.5984 37.0494 87.5984C39.1835 87.5984 41.2697 88.2315 43.0439 89.4175Z" fill="#FF8900"/>
<path opacity="0.4" d="M37.0643 86.8729C38.7423 86.8729 40.1026 85.5126 40.1026 83.8345C40.1026 82.1565 38.7423 80.7961 37.0643 80.7961C35.3862 80.7961 34.0258 82.1565 34.0258 83.8345C34.0258 85.5126 35.3862 86.8729 37.0643 86.8729Z" fill="#FF8900"/>
<path opacity="0.4" d="M134.643 90.4177H54.2185C53.0915 90.4177 52.0106 89.97 51.2137 89.1731C50.4167 88.3761 49.969 87.2952 49.969 86.1682C49.969 85.6103 50.0789 85.0579 50.2926 84.5426C50.5062 84.0272 50.8192 83.5591 51.2139 83.1648C51.6086 82.7705 52.0771 82.4579 52.5926 82.2448C53.1082 82.0317 53.6607 81.9223 54.2185 81.9229H134.643C135.201 81.9223 135.754 82.0317 136.269 82.2448C136.785 82.4579 137.253 82.7705 137.648 83.1648C138.043 83.5591 138.356 84.0272 138.569 84.5426C138.783 85.0579 138.893 85.6103 138.893 86.1682C138.893 87.2952 138.445 88.3761 137.648 89.1731C136.851 89.97 135.77 90.4177 134.643 90.4177Z" fill="#FF8900"/>
<path d="M37.0642 100.858C38.615 100.858 40.1309 101.318 41.4203 102.179C42.7098 103.041 43.7147 104.266 44.3082 105.698C44.9016 107.131 45.0569 108.707 44.7544 110.228C44.4518 111.749 43.7051 113.147 42.6085 114.243C41.512 115.34 40.1149 116.086 38.5939 116.389C37.0729 116.691 35.4964 116.536 34.0637 115.943C32.631 115.349 31.4064 114.344 30.5449 113.055C29.6833 111.765 29.2235 110.25 29.2235 108.699C29.2246 106.62 30.051 104.626 31.5212 103.156C32.9914 101.686 34.9851 100.859 37.0642 100.858ZM37.0642 100.436C35.43 100.436 33.8325 100.921 32.4737 101.829C31.1149 102.736 30.0558 104.027 29.4305 105.537C28.8051 107.047 28.6414 108.708 28.9603 110.311C29.2791 111.914 30.066 113.386 31.2216 114.541C32.3772 115.697 33.8494 116.484 35.4523 116.803C37.0551 117.122 38.7165 116.958 40.2263 116.333C41.7361 115.707 43.0266 114.648 43.9345 113.289C44.8424 111.931 45.327 110.333 45.327 108.699C45.327 106.507 44.4565 104.406 42.9069 102.856C41.3573 101.307 39.2557 100.436 37.0642 100.436Z" fill="#FF8900"/>
<path opacity="0.4" d="M43.0439 111.923C42.4585 113.002 41.5925 113.903 40.5375 114.531C39.4824 115.159 38.2773 115.491 37.0494 115.491C35.8216 115.491 34.6165 115.159 33.5614 114.531C32.5063 113.903 31.6403 113.002 31.0549 111.923C32.8301 110.739 34.9159 110.108 37.0494 110.108C39.1829 110.108 41.2687 110.739 43.0439 111.923Z" fill="#FF8900"/>
<path opacity="0.4" d="M37.0643 109.382C38.7423 109.382 40.1026 108.022 40.1026 106.344C40.1026 104.666 38.7423 103.306 37.0643 103.306C35.3862 103.306 34.0258 104.666 34.0258 106.344C34.0258 108.022 35.3862 109.382 37.0643 109.382Z" fill="#FF8900"/>
<path opacity="0.4" d="M54.2185 104.428H134.643C135.77 104.428 136.851 104.876 137.648 105.673C138.445 106.47 138.893 107.551 138.893 108.678C138.893 109.805 138.445 110.886 137.648 111.683C136.851 112.48 135.77 112.927 134.643 112.927H54.2185C53.0915 112.927 52.0106 112.48 51.2137 111.683C50.4167 110.886 49.969 109.805 49.969 108.678C49.969 107.552 50.4163 106.472 51.2124 105.676C52.0086 104.88 53.0884 104.432 54.2143 104.432L54.2185 104.428Z" fill="#FF8900"/>
<path opacity="0.1" d="M114.835 112.8C114.834 115.382 115.087 117.957 115.59 120.489C113.23 121.891 111.274 123.881 109.914 126.265C108.554 128.649 107.835 131.346 107.829 134.09C107.821 135.343 107.963 136.593 108.251 137.812H142.974C143.676 137.81 144.349 137.53 144.845 137.034C145.342 136.537 145.621 135.864 145.624 135.162V74.3943C136.893 76.347 129.086 81.2143 123.49 88.195C117.894 95.1756 114.841 103.854 114.835 112.8Z" fill="black"/>
<path d="M178.984 139.284C192.694 125.574 192.694 103.346 178.984 89.6364C165.274 75.9266 143.046 75.9266 129.337 89.6364C115.627 103.346 115.627 125.574 129.337 139.284C143.046 152.994 165.274 152.994 178.984 139.284Z" fill="#FF8900"/>
<path d="M176.955 137.047C189.453 124.549 189.453 104.284 176.955 91.7859C164.456 79.2874 144.192 79.2874 131.693 91.7859C119.195 104.284 119.195 124.549 131.693 137.047C144.192 149.546 164.456 149.546 176.955 137.047Z" fill="white"/>
<path d="M143.526 92.9456L141.484 95.562C141.484 95.562 139.69 96.9208 139.011 98.094C138.218 98.8789 137.492 99.6849 136.774 100.533C135.952 101.503 135.186 102.519 134.479 103.576C133.704 104.706 133.064 105.922 132.571 107.201C132.259 108.01 132.086 108.866 132.061 109.733C132.05 110.346 132.158 110.955 132.381 111.526C132.661 112.226 133.123 112.838 133.719 113.299L134.166 113.636L134.837 113.763C136.162 114.015 137.507 114.147 138.855 114.16L139.387 114.113L138.838 108.762C138.386 108.762 137.416 108.851 136.973 108.842C136.973 108.758 137.007 108.674 137.028 108.589C137.295 107.571 137.663 106.581 138.125 105.635C138.597 104.61 139.142 103.584 139.707 102.563C140.205 101.66 140.741 100.753 141.26 99.8664L143.792 98.2712L145.274 95.6421L143.526 92.9456ZM136.939 109.615C136.936 109.574 136.936 109.533 136.939 109.492C136.957 109.522 136.97 109.555 136.977 109.589C136.99 109.691 136.96 109.695 136.939 109.615Z" fill="#7F3E3B"/>
<path d="M157.908 98.6003C157.971 98.2754 155.752 97.1613 154.224 98.0686C152.903 98.8535 152.734 99.9254 153.216 101.204C153.216 101.293 153.249 101.381 153.262 101.47C153.291 101.677 153.317 101.892 153.329 102.086C153.427 103.432 153.072 104.686 151.557 105.399C151.557 105.483 151.35 105.572 151.283 105.631C150.722 106.124 150.364 106.809 150.278 107.551C150.278 108.1 150.797 108.534 151.401 109.057L152.245 109.627L153.401 109.517C156.95 108.475 158.609 105.234 158.533 104.994C157.621 103.491 157.634 100.858 157.908 98.6003Z" fill="#7F3E3B"/>
<path d="M165.58 106.289L164.939 106.18C164.095 106.045 160.33 105.192 158.512 105.032C158.09 105.931 156.705 108.125 153.156 109.167L152.279 109.374L151.435 108.952C151.174 108.764 150.957 108.522 150.798 108.242C150.639 107.963 150.543 107.652 150.515 107.332C150.544 107.002 150.64 106.682 150.798 106.392C150.957 106.101 151.173 105.846 151.435 105.644C151.465 105.617 151.49 105.584 151.506 105.547C151.506 105.445 151.506 105.378 151.506 105.369C151.241 105.403 147.873 105.914 147.59 105.96C144.416 106.547 141.299 107.412 138.277 108.547L138.31 108.851L138.922 114.164L139.15 116.177C139.15 116.177 140.838 115.987 143.054 115.599C142.45 120.975 142.332 128.765 144.176 138.779L151.38 138.644L163.896 138.412C163.947 137.568 163.854 135.821 163.766 133.432L163.652 129.744C163.584 126.486 163.597 122.57 163.888 118.384C163.934 117.721 163.989 117.055 164.048 116.379C166.606 119.143 169.167 121.785 169.167 121.785L170.378 120.62C171.927 119.873 173.147 118.536 174.21 116.928L175.632 115.556C175.632 115.556 169.041 106.872 165.58 106.289Z" fill="#FF8900"/>
<path opacity="0.3" d="M162.116 114.21C162.212 115.089 162.492 115.937 162.938 116.7L163.909 118.363C163.955 117.7 164.01 117.033 164.069 116.358C163.403 115.628 162.736 114.907 162.116 114.21Z" fill="black"/>
<path opacity="0.3" d="M164.074 116.362C164.015 117.038 163.96 117.704 163.913 118.367C163.955 117.704 164.015 117.033 164.074 116.362Z" fill="black"/>
<path d="M153.216 101.204C153.216 101.293 153.245 101.381 153.262 101.47C153.262 101.381 153.232 101.293 153.216 101.204Z" fill="#7F3E3B"/>
<path opacity="0.2" d="M153.33 102.086C153.33 101.884 153.292 101.664 153.262 101.47C153.292 101.677 153.317 101.884 153.33 102.086Z" fill="black"/>
<path d="M155.954 100.204C155.87 100.263 155.79 100.326 155.701 100.385C154.963 100.88 154.103 101.163 153.216 101.204C153.216 101.293 153.245 101.381 153.262 101.47C153.291 101.677 153.317 101.892 153.329 102.086C153.329 102.086 153.329 102.111 153.329 102.124C154.424 101.857 155.368 101.166 155.954 100.204Z" fill="#7F3E3B"/>
<path d="M160.693 105.673C160.656 105.5 160.571 105.34 160.447 105.213C160.323 105.086 160.165 104.997 159.993 104.956L159.115 104.745C159.005 104.719 158.89 104.729 158.787 104.774C158.683 104.819 158.597 104.896 158.541 104.994L158.512 105.032C158.09 105.93 156.706 108.125 153.156 109.167L152.882 109.231L152.279 109.374L151.435 108.952C151.174 108.764 150.957 108.522 150.798 108.242C150.639 107.962 150.543 107.652 150.515 107.332C150.544 107.002 150.64 106.682 150.798 106.391C150.957 106.101 151.173 105.846 151.435 105.644C151.481 105.596 151.522 105.544 151.557 105.487C151.595 105.39 151.587 105.344 151.519 105.302C150.586 104.631 148.502 105.665 148.417 105.842C148.329 105.93 148.24 106.023 148.152 106.129C147.891 106.435 147.697 106.792 147.581 107.177C147.465 107.562 147.429 107.966 147.476 108.365C147.564 109.037 147.802 109.68 148.173 110.247C148.543 110.814 149.036 111.29 149.616 111.64C149.635 111.646 149.656 111.646 149.675 111.64C149.697 111.646 149.72 111.646 149.742 111.64C149.761 111.627 149.776 111.61 149.786 111.59C149.796 111.571 149.802 111.549 149.802 111.526C149.803 111.027 149.953 110.54 150.23 110.126C150.508 109.711 150.902 109.388 151.363 109.197L152.101 109.593C148.928 122.616 151.08 138.226 151.139 138.648H151.384C151.384 138.488 149.147 122.743 152.346 109.648L153.119 109.463C154.017 110.56 153.591 112.189 153.587 112.206C153.581 112.228 153.581 112.252 153.588 112.274C153.595 112.297 153.608 112.317 153.625 112.332C153.649 112.352 153.679 112.362 153.709 112.362C153.724 112.366 153.741 112.366 153.756 112.362C153.925 112.286 157.917 110.539 159.313 108.872C159.973 108.075 160.438 107.136 160.672 106.129C160.719 105.981 160.726 105.824 160.693 105.673Z" fill="white"/>
<path opacity="0.2" d="M155.954 100.204C155.87 100.263 155.79 100.326 155.701 100.385C154.963 100.88 154.103 101.163 153.216 101.204C153.216 101.293 153.245 101.381 153.262 101.47C153.291 101.677 153.317 101.892 153.329 102.086C153.329 102.086 153.329 102.111 153.329 102.124C154.424 101.857 155.368 101.166 155.954 100.204Z" fill="black"/>
<path d="M150.743 90.8861C152.393 88.7761 151.346 87.5101 150.646 87.6282C149.983 87.9405 149.354 88.8225 149.029 90.7974C148.951 91.2633 148.94 91.7379 148.996 92.2069C149.675 92.1732 150.743 90.8861 150.743 90.8861Z" fill="#263238"/>
<path d="M157.659 95.5408C162.229 87.5017 153.203 86.5648 151.363 88.3668C150.742 88.9426 150.219 89.6153 149.814 90.3586L149.43 91.114C149.271 91.4709 149.13 91.8357 149.008 92.207C148.544 93.5412 148.302 94.9426 148.291 96.3552C148.288 97.0003 148.414 97.6395 148.662 98.2349C148.911 98.8304 149.276 99.37 149.736 99.822C150.196 100.274 150.742 100.629 151.342 100.867C151.942 101.104 152.583 101.219 153.228 101.204C154.116 101.163 154.975 100.88 155.714 100.385C155.802 100.326 155.883 100.263 155.967 100.204C156.57 99.7743 157.084 99.2328 157.482 98.6087C158.419 97.0937 158.174 96.3299 157.659 95.5408Z" fill="#7F3E3B"/>
<path d="M149.198 90.8651C149.17 90.9017 149.158 90.9477 149.163 90.9934C149.169 91.0391 149.192 91.0808 149.228 91.1098C149.259 91.1342 149.298 91.1475 149.337 91.1478C149.371 91.1469 149.404 91.135 149.43 91.114C149.447 91.1066 149.462 91.095 149.472 91.0803C149.607 90.9022 149.781 90.7574 149.981 90.6572C150.181 90.557 150.401 90.5039 150.624 90.5021C150.671 90.5045 150.716 90.4885 150.751 90.4578C150.786 90.427 150.807 90.3838 150.81 90.3376C150.812 90.3148 150.809 90.292 150.802 90.2703C150.795 90.2487 150.784 90.2286 150.769 90.2114C150.754 90.1941 150.736 90.18 150.715 90.1698C150.695 90.1596 150.673 90.1535 150.65 90.1519C150.356 90.1501 150.066 90.2211 149.806 90.3587C149.571 90.4838 149.364 90.6562 149.198 90.8651Z" fill="#263238"/>
<path d="M153.764 95.9205C153.748 95.9048 153.726 95.896 153.703 95.896C153.68 95.896 153.658 95.9048 153.642 95.9205C153.353 96.1624 153.013 96.3353 152.647 96.426C152.282 96.5166 151.9 96.5227 151.532 96.4438C151.509 96.44 151.487 96.4449 151.468 96.4574C151.449 96.47 151.436 96.4892 151.43 96.5113C151.427 96.5341 151.431 96.5576 151.444 96.5772C151.456 96.5967 151.476 96.6108 151.498 96.6168C151.699 96.6568 151.905 96.6752 152.11 96.6717C152.714 96.666 153.296 96.4445 153.751 96.0471C153.761 96.0397 153.769 96.0306 153.774 96.0202C153.78 96.0097 153.783 95.9983 153.785 95.9865C153.786 95.9747 153.785 95.9628 153.781 95.9514C153.778 95.9401 153.772 95.9296 153.764 95.9205Z" fill="#263238"/>
<path d="M151.498 92.9075C150.939 93.7253 150.274 94.4648 149.519 95.1061C149.941 95.6884 150.852 95.6462 150.852 95.6462L151.498 92.9075Z" fill="#630F0F"/>
<path d="M150.004 93.0089C150.194 93.0469 150.426 92.8443 150.473 92.5531C150.519 92.262 150.443 92.0003 150.253 91.9623C150.063 91.9244 149.852 92.1269 149.785 92.4181C149.717 92.7093 149.81 92.9709 150.004 93.0089Z" fill="#263238"/>
<path d="M153.304 93.6839C153.494 93.7219 153.701 93.5194 153.773 93.2282C153.844 92.937 153.739 92.6754 153.549 92.6374C153.359 92.5994 153.148 92.802 153.081 93.0931C153.013 93.3843 153.11 93.6291 153.304 93.6839Z" fill="#263238"/>
<path d="M160.55 89.0841C162.335 87.5565 158.267 84.4421 158.267 84.4421C158.267 84.4421 158.723 85.5562 157.777 85.8643C156.832 86.1723 150.181 83.691 150.278 86.5057C150.297 86.9024 150.424 87.2864 150.646 87.6156C150.843 87.8988 151.086 88.1481 151.363 88.3541C152.908 89.5272 155.718 89.8859 157.237 89.8859C156.996 90.4738 156.827 91.0888 156.735 91.7174C156.619 92.38 156.641 93.0595 156.8 93.7131C156.959 94.3668 157.251 94.9804 157.659 95.5154C158.503 96.984 159.63 96.9418 160.592 95.8235C162.137 94.3634 163.626 91.4051 160.55 89.0841Z" fill="#263238"/>
<path d="M159.773 94.9797C159.073 94.6927 158.284 95.0303 157.663 95.5409C157.323 95.8117 157.028 96.1351 156.79 96.4989C156.195 97.4315 156.406 98.516 157.474 98.6089H157.659H157.912C158.753 98.5233 159.538 98.1507 160.136 97.5539C160.358 97.3401 160.518 97.0703 160.599 96.7732C160.68 96.4761 160.679 96.1626 160.596 95.8659C160.536 95.6651 160.43 95.4808 160.288 95.3272C160.145 95.1736 159.969 95.0547 159.773 94.9797Z" fill="#7F3E3B"/>
<path d="M144.197 138.758C144.197 138.758 144.083 139.745 143.906 141.404C150.369 143.589 157.36 143.654 163.863 141.589C163.905 139.585 163.934 138.386 163.934 138.386L151.401 138.623H151.156L144.197 138.758Z" fill="#263238"/>
<path d="M176.818 121.764C176.782 121.405 176.7 121.051 176.573 120.713C176.513 120.545 176.441 120.382 176.358 120.224L176.236 119.996L176.168 119.878C175.565 118.839 174.902 117.856 174.227 116.924L170.395 120.616C170.902 121.249 171.395 121.882 171.851 122.532C171.767 122.748 171.658 122.953 171.526 123.144C170.913 123.996 170.205 124.776 169.416 125.469C167.764 126.958 166.032 128.356 164.23 129.66L163.643 129.735L161.288 130.056L158.972 131.622L160.495 134.719L162.411 133.74C162.869 133.677 163.319 133.571 163.757 133.424C164.434 133.247 165.024 132.83 165.416 132.251C166.536 131.807 167.634 131.305 168.703 130.748C169.852 130.155 170.966 129.494 172.037 128.769C172.58 128.398 173.117 127.991 173.649 127.55C174.214 127.086 174.736 126.573 175.21 126.018C175.817 125.331 176.285 124.533 176.586 123.667C176.798 123.057 176.878 122.408 176.818 121.764ZM171.885 122.431C171.885 122.41 171.885 122.384 171.885 122.367C171.885 122.266 171.923 122.228 171.923 122.287C171.921 122.336 171.911 122.385 171.893 122.431H171.885Z" fill="#7F3E3B"/>
<path d="M135.075 134.24C136.1 127.925 131.812 121.975 125.497 120.95C119.182 119.925 113.232 124.213 112.207 130.528C111.182 136.843 115.47 142.793 121.785 143.818C128.1 144.844 134.05 140.555 135.075 134.24Z" fill="#263238"/>
<path d="M130.001 131.293H124.718V126.009C124.718 125.722 124.604 125.446 124.4 125.242C124.197 125.039 123.921 124.925 123.633 124.925C123.346 124.925 123.07 125.039 122.866 125.242C122.663 125.446 122.549 125.722 122.549 126.009V131.293H117.265C116.978 131.293 116.702 131.407 116.498 131.61C116.295 131.814 116.181 132.09 116.181 132.377C116.181 132.665 116.295 132.941 116.498 133.144C116.702 133.348 116.978 133.462 117.265 133.462H122.549V138.745C122.549 138.888 122.577 139.029 122.631 139.16C122.686 139.292 122.766 139.411 122.866 139.512C122.967 139.613 123.087 139.693 123.218 139.747C123.35 139.802 123.491 139.83 123.633 139.83C123.776 139.83 123.917 139.802 124.048 139.747C124.18 139.693 124.299 139.613 124.4 139.512C124.501 139.411 124.581 139.292 124.635 139.16C124.69 139.029 124.718 138.888 124.718 138.745V133.462H130.001C130.289 133.462 130.565 133.348 130.768 133.144C130.972 132.941 131.086 132.665 131.086 132.377C131.086 132.09 130.972 131.814 130.768 131.61C130.565 131.407 130.289 131.293 130.001 131.293Z" fill="white"/>
<path d="M153.933 91.4728C154.145 91.5158 154.343 91.6097 154.511 91.7464C154.679 91.8832 154.81 92.0587 154.895 92.2577C154.909 92.2881 154.932 92.3137 154.961 92.3316C154.989 92.3495 155.022 92.359 155.055 92.359C155.079 92.3649 155.104 92.3649 155.127 92.359C155.148 92.3495 155.167 92.3359 155.183 92.319C155.198 92.3021 155.21 92.2823 155.218 92.2607C155.226 92.239 155.229 92.2161 155.228 92.1931C155.227 92.1702 155.222 92.1476 155.212 92.1269C155.102 91.8751 154.932 91.6539 154.717 91.4826C154.503 91.3112 154.249 91.1949 153.979 91.1436C153.933 91.1375 153.887 91.1498 153.85 91.1779C153.813 91.206 153.789 91.2476 153.783 91.2935C153.777 91.3393 153.789 91.3858 153.817 91.4226C153.845 91.4594 153.887 91.4835 153.933 91.4897V91.4728Z" fill="#263238"/>
</svg>
